<?xml version="1.0" standalone="no"?><!DOCTYPE svg PUBLIC "-//W3C//DTD SVG 1.1//EN" "http://www.w3.org/Graphics/SVG/1.1/DTD/svg11.dtd"><svg width="100%" height="100%" viewBox="0 0 115 97" version="1.1" xmlns="http://www.w3.org/2000/svg" xmlns:xlink="http://www.w3.org/1999/xlink" xml:space="preserve" style="fill-rule:evenodd;clip-rule:evenodd;stroke-linejoin:round;stroke-miterlimit:1.41421;"><g id="Illustrations"><path d="M111,89.324c0,2.517 -2.04,4.557 -4.557,4.557l-97.886,0c-2.517,0 -4.557,-2.04 -4.557,-4.557l0,-81.887c0,-2.516 2.04,-4.556 4.557,-4.556l97.886,0c2.517,0 4.557,2.04 4.557,4.556l0,81.887Z" style="fill:#eef4dc;fill-rule:nonzero;"/><path d="M104,17.324c0,2.517 -2.04,4.557 -4.557,4.557l-49.886,0c-2.517,0 -4.557,-2.04 -4.557,-4.557l0,-4.887c0,-2.516 2.04,-4.556 4.557,-4.556l49.886,0c2.517,0 4.557,2.04 4.557,4.556l0,4.887ZM105,83.324c0,2.517 -2.04,4.557 -4.557,4.557l-86.886,0c-2.517,0 -4.557,-2.04 -4.557,-4.557l0,-52.887c0,-2.516 2.04,-4.556 4.557,-4.556l86.886,0c2.517,0 4.557,2.04 4.557,4.556l0,52.887ZM12.45,6.002c3.777,0 6.835,3.06 6.835,6.835c0,3.774 -3.058,6.834 -6.835,6.834c-3.773,0 -6.835,-3.06 -6.835,-6.834c0,-3.775 3.062,-6.835 6.835,-6.835M114,5.437c0,-2.516 -2.04,-4.556 -4.557,-4.556l-104.886,0c-2.517,0 -4.557,2.04 -4.557,4.556l0,86.887c0,2.517 2.04,4.557 4.557,4.557l104.886,0c2.517,0 4.557,-2.04 4.557,-4.557l0,-86.887Z" style="fill:#122749;fill-rule:nonzero;"/><path d="M73.506,47.881c0,9.668 -7.837,17.506 -17.506,17.506c-9.668,0 -17.506,-7.838 -17.506,-17.506c0,-9.668 7.838,-17.506 17.506,-17.506c9.669,0 17.506,7.838 17.506,17.506" style="fill:#122749;fill-rule:nonzero;"/><g transform="matrix(1,0,0,1,-125,-235)"><path d="M143.275,318.484l0,-12.804l2.714,0l0,1.018l-1.483,0l0,10.767l1.483,0l0,1.019l-2.714,0Z" style="fill:#122749;fill-rule:nonzero;"/><path d="M149.63,315.701l0,-10.021l3.76,0c0.765,0 1.379,0.101 1.842,0.304c0.463,0.203 0.825,0.515 1.087,0.937c0.262,0.421 0.393,0.862 0.393,1.322c0,0.429 -0.116,0.832 -0.349,1.21c-0.232,0.379 -0.583,0.684 -1.052,0.916c0.606,0.178 1.072,0.481 1.398,0.909c0.325,0.429 0.488,0.935 0.488,1.518c0,0.469 -0.099,0.906 -0.297,1.309c-0.198,0.403 -0.443,0.714 -0.735,0.933c-0.292,0.219 -0.657,0.384 -1.097,0.496c-0.44,0.111 -0.979,0.167 -1.617,0.167l-3.821,0ZM150.956,309.891l2.167,0c0.588,0 1.009,-0.039 1.265,-0.116c0.337,-0.101 0.591,-0.267 0.762,-0.499c0.171,-0.233 0.256,-0.525 0.256,-0.875c0,-0.333 -0.079,-0.626 -0.239,-0.879c-0.16,-0.253 -0.387,-0.426 -0.684,-0.519c-0.296,-0.094 -0.804,-0.141 -1.524,-0.141l-2.003,0l0,3.029ZM150.956,314.519l2.495,0c0.429,0 0.729,-0.016 0.903,-0.048c0.305,-0.055 0.56,-0.146 0.765,-0.274c0.205,-0.127 0.374,-0.313 0.506,-0.557c0.132,-0.244 0.198,-0.525 0.198,-0.844c0,-0.374 -0.095,-0.698 -0.287,-0.974c-0.191,-0.276 -0.457,-0.469 -0.796,-0.581c-0.34,-0.112 -0.829,-0.168 -1.467,-0.168l-2.317,0l0,3.446Z" style="fill:#122749;fill-rule:nonzero;"/><path d="M159.043,315.701l0,-10.021l4.443,0c0.894,0 1.573,0.09 2.037,0.27c0.465,0.18 0.837,0.498 1.115,0.953c0.278,0.456 0.417,0.96 0.417,1.511c0,0.711 -0.23,1.31 -0.691,1.798c-0.46,0.488 -1.171,0.798 -2.133,0.93c0.351,0.168 0.618,0.335 0.8,0.499c0.388,0.355 0.754,0.8 1.101,1.333l1.743,2.727l-1.668,0l-1.326,-2.085c-0.388,-0.601 -0.707,-1.062 -0.957,-1.381c-0.251,-0.319 -0.475,-0.542 -0.674,-0.669c-0.198,-0.128 -0.399,-0.217 -0.604,-0.267c-0.151,-0.032 -0.397,-0.048 -0.739,-0.048l-1.538,0l0,4.45l-1.326,0ZM160.369,310.103l2.851,0c0.606,0 1.08,-0.063 1.422,-0.188c0.341,-0.126 0.601,-0.326 0.779,-0.602c0.178,-0.276 0.267,-0.575 0.267,-0.899c0,-0.474 -0.173,-0.863 -0.517,-1.169c-0.344,-0.305 -0.887,-0.458 -1.63,-0.458l-3.172,0l0,3.316Z" style="fill:#122749;fill-rule:nonzero;"/><path d="M165.032,315.701l3.849,-10.021l1.429,0l4.101,10.021l-1.511,0l-1.169,-3.035l-4.19,0l-1.101,3.035l-1.408,0ZM167.924,311.586l3.397,0l-1.046,-2.775c-0.319,-0.843 -0.556,-1.536 -0.711,-2.078c-0.127,0.642 -0.307,1.28 -0.54,1.914l-1.1,2.939Z" style="fill:#122749;fill-rule:nonzero;"/><path d="M174.957,315.701l0,-10.021l1.36,0l5.264,7.868l0,-7.868l1.272,0l0,10.021l-1.361,0l-5.263,-7.875l0,7.875l-1.272,0Z" style="fill:#122749;fill-rule:nonzero;"/><path d="M184.581,315.701l0,-10.021l3.452,0c0.78,0 1.374,0.048 1.784,0.143c0.575,0.133 1.065,0.372 1.47,0.718c0.529,0.447 0.924,1.018 1.186,1.713c0.262,0.695 0.393,1.489 0.393,2.382c0,0.761 -0.089,1.435 -0.266,2.023c-0.178,0.588 -0.406,1.075 -0.684,1.46c-0.278,0.385 -0.582,0.688 -0.913,0.909c-0.33,0.221 -0.729,0.388 -1.196,0.502c-0.467,0.114 -1.004,0.171 -1.61,0.171l-3.616,0ZM185.907,314.519l2.14,0c0.661,0 1.179,-0.062 1.555,-0.185c0.376,-0.123 0.676,-0.296 0.899,-0.519c0.314,-0.315 0.559,-0.738 0.735,-1.268c0.175,-0.531 0.263,-1.175 0.263,-1.932c0,-1.048 -0.172,-1.853 -0.516,-2.416c-0.344,-0.563 -0.762,-0.94 -1.254,-1.131c-0.356,-0.137 -0.928,-0.206 -1.716,-0.206l-2.106,0l0,7.657Z" style="fill:#122749;fill-rule:nonzero;"/><rect x="194.917" y="305.68" width="1.326" height="10.021" style="fill:#122749;fill-rule:nonzero;"/><path d="M197.067,315.701l0,-10.021l1.361,0l5.263,7.868l0,-7.868l1.272,0l0,10.021l-1.36,0l-5.264,-7.875l0,7.875l-1.272,0Z" style="fill:#122749;fill-rule:nonzero;"/><path d="M211.381,311.771l0,-1.176l4.245,-0.007l0,3.719c-0.652,0.519 -1.324,0.91 -2.017,1.172c-0.692,0.262 -1.403,0.393 -2.132,0.393c-0.985,0 -1.879,-0.211 -2.684,-0.632c-0.804,-0.422 -1.411,-1.031 -1.821,-1.829c-0.41,-0.797 -0.616,-1.688 -0.616,-2.673c0,-0.975 0.204,-1.885 0.612,-2.731c0.408,-0.845 0.995,-1.473 1.761,-1.883c0.765,-0.41 1.647,-0.615 2.645,-0.615c0.725,0 1.38,0.117 1.965,0.352c0.586,0.235 1.045,0.562 1.378,0.981c0.332,0.419 0.585,0.966 0.759,1.641l-1.197,0.328c-0.15,-0.511 -0.337,-0.912 -0.56,-1.203c-0.224,-0.292 -0.543,-0.526 -0.957,-0.701c-0.415,-0.176 -0.875,-0.263 -1.381,-0.263c-0.606,0 -1.13,0.092 -1.572,0.277c-0.442,0.184 -0.799,0.427 -1.07,0.728c-0.271,0.3 -0.482,0.631 -0.633,0.991c-0.255,0.62 -0.382,1.292 -0.382,2.016c0,0.894 0.153,1.641 0.461,2.243c0.308,0.601 0.755,1.048 1.343,1.339c0.588,0.292 1.213,0.438 1.873,0.438c0.575,0 1.135,-0.111 1.682,-0.332c0.547,-0.221 0.962,-0.457 1.244,-0.707l0,-1.866l-2.946,0Z" style="fill:#122749;fill-rule:nonzero;"/><path d="M221.371,318.484l-2.714,0l0,-1.019l1.484,0l0,-10.767l-1.484,0l0,-1.018l2.714,0l0,12.804Z" style="fill:#122749;fill-rule:nonzero;"/></g><path d="M48.039,58.881l0,-23.622l8.862,0c1.805,0 3.252,0.239 4.342,0.717c1.091,0.478 1.945,1.214 2.562,2.207c0.618,0.994 0.927,2.033 0.927,3.118c0,1.01 -0.274,1.961 -0.822,2.852c-0.548,0.892 -1.375,1.612 -2.481,2.16c1.428,0.419 2.527,1.133 3.295,2.143c0.768,1.009 1.152,2.202 1.152,3.577c0,1.106 -0.234,2.135 -0.701,3.086c-0.467,0.95 -1.045,1.683 -1.732,2.199c-0.688,0.516 -1.55,0.905 -2.586,1.168c-1.037,0.263 -2.307,0.395 -3.811,0.395l-9.007,0ZM51.165,45.185l5.107,0c1.386,0 2.38,-0.092 2.981,-0.274c0.795,-0.237 1.394,-0.629 1.797,-1.176c0.403,-0.548 0.604,-1.236 0.604,-2.063c0,-0.784 -0.188,-1.474 -0.564,-2.071c-0.376,-0.596 -0.913,-1.004 -1.611,-1.224c-0.698,-0.22 -1.896,-0.33 -3.593,-0.33l-4.721,0l0,7.138ZM51.165,56.093l5.881,0c1.01,0 1.719,-0.037 2.127,-0.112c0.72,-0.129 1.321,-0.344 1.805,-0.645c0.483,-0.301 0.88,-0.738 1.192,-1.313c0.311,-0.575 0.467,-1.238 0.467,-1.99c0,-0.881 -0.225,-1.646 -0.677,-2.296c-0.451,-0.65 -1.076,-1.107 -1.877,-1.37c-0.8,-0.263 -1.952,-0.395 -3.456,-0.395l-5.462,0l0,8.121Z" style="fill:#e6e6e6;fill-rule:nonzero;"/></g></svg>