<?xml version="1.0" standalone="no"?><!DOCTYPE svg PUBLIC "-//W3C//DTD SVG 1.1//EN" "http://www.w3.org/Graphics/SVG/1.1/DTD/svg11.dtd"><svg width="100%" height="100%" viewBox="0 0 115 97" version="1.1" xmlns="http://www.w3.org/2000/svg" xmlns:xlink="http://www.w3.org/1999/xlink" xml:space="preserve" style="fill-rule:evenodd;clip-rule:evenodd;stroke-linejoin:round;stroke-miterlimit:1.41421;"><g id="Illustrations"><path d="M111,90.324c0,2.517 -2.04,4.557 -4.557,4.557l-97.886,0c-2.517,0 -4.557,-2.04 -4.557,-4.557l0,-81.887c0,-2.516 2.04,-4.556 4.557,-4.556l97.886,0c2.517,0 4.557,2.04 4.557,4.556l0,81.887Z" style="fill:#eef4dc;fill-rule:nonzero;"/><path d="M104,17.324c0,2.517 -2.04,4.557 -4.557,4.557l-49.886,0c-2.517,0 -4.557,-2.04 -4.557,-4.557l0,-4.887c0,-2.516 2.04,-4.556 4.557,-4.556l49.886,0c2.517,0 4.557,2.04 4.557,4.556l0,4.887ZM105,83.324c0,2.517 -2.04,4.557 -4.557,4.557l-86.886,0c-2.517,0 -4.557,-2.04 -4.557,-4.557l0,-52.887c0,-2.516 2.04,-4.556 4.557,-4.556l86.886,0c2.517,0 4.557,2.04 4.557,4.556l0,52.887ZM12.45,6.502c3.777,0 6.835,3.06 6.835,6.835c0,3.774 -3.058,6.834 -6.835,6.834c-3.773,0 -6.835,-3.06 -6.835,-6.834c0,-3.775 3.062,-6.835 6.835,-6.835M114,5.437c0,-2.516 -2.04,-4.556 -4.557,-4.556l-104.886,0c-2.517,0 -4.557,2.04 -4.557,4.556l0,86.887c0,2.517 2.04,4.557 4.557,4.557l104.886,0c2.517,0 4.557,-2.04 4.557,-4.557l0,-86.887Z" style="fill:#122749;fill-rule:nonzero;"/><path d="M54.221,77.381c0,1.888 0.747,3.5 -1.14,3.5l-29.617,0c-1.887,0 -3.418,-1.612 -3.418,-3.5c0,-1.888 1.531,-3.5 3.418,-3.5l29.617,0c1.887,0 1.14,1.612 1.14,3.5" style="fill:#414c4e;fill-rule:nonzero;"/><path d="M93,50.464c0,1.887 -1.53,3.417 -3.418,3.417l-66.164,0c-1.888,0 -3.418,-1.53 -3.418,-3.417l0,-0.165c0,-1.887 1.53,-3.418 3.418,-3.418l66.164,0c1.888,0 3.418,1.531 3.418,3.418l0,0.165Z" style="fill:#414c4e;fill-rule:nonzero;"/><path d="M93,64.464c0,1.887 -1.53,3.416 -3.418,3.416l-66.164,0c-1.888,0 -3.418,-1.529 -3.418,-3.416l0,-0.166c0,-1.887 1.53,-3.418 3.418,-3.418l66.164,0c1.888,0 3.418,1.531 3.418,3.418l0,0.166Z" style="fill:#414c4e;fill-rule:nonzero;"/><path d="M93,36.381c0,1.933 -1.53,3.5 -3.418,3.5l-66.164,0c-1.888,0 -3.418,-1.567 -3.418,-3.5c0,-1.933 1.53,-3.5 3.418,-3.5l66.164,0c1.888,0 3.418,1.567 3.418,3.5" style="fill:#414c4e;fill-rule:nonzero;"/><path d="M57.541,79.742l6.322,-2.671l-3.651,-3.651l-2.671,6.322Z" style="fill:#394846;fill-rule:nonzero;"/><path d="M71.579,65.706l-7.355,-5.06l-4.011,12.774l3.651,3.651l12.773,-4.011l-5.058,-7.354Z" style="fill:#f2673b;fill-rule:nonzero;"/><path d="M108.109,29l-6.294,-6.293l-37.766,37.765l1.399,4.196l4.196,1.399l1.398,1.399l1.399,4.196l4.196,1.399l37.765,-37.767l-6.293,-6.294Z" style="fill:#394846;fill-rule:nonzero;"/><path d="M72.441,71.661l-2.099,-4.896l-4.894,-2.098l39.164,-39.164l6.993,6.993l-39.164,39.165Z" style="fill:#fff;fill-rule:nonzero;"/><path d="M115.102,34.595c1.932,-1.932 2.932,-6.062 1,-7.994l-5.595,-5.594c-1.931,-1.932 -6.061,-0.932 -7.992,1c-0.24,0.239 -0.449,0.497 -0.63,0.77l12.448,12.447c0.272,-0.18 0.529,-0.389 0.769,-0.629" style="fill:#f2673b;fill-rule:nonzero;"/></g></svg>