<?xml version="1.0" standalone="no"?><!DOCTYPE svg PUBLIC "-//W3C//DTD SVG 1.1//EN" "http://www.w3.org/Graphics/SVG/1.1/DTD/svg11.dtd"><svg width="100%" height="100%" viewBox="0 0 136 96" version="1.1" xmlns="http://www.w3.org/2000/svg" xmlns:xlink="http://www.w3.org/1999/xlink" xml:space="preserve" style="fill-rule:evenodd;clip-rule:evenodd;stroke-linejoin:round;stroke-miterlimit:1.41421;"><g id="Illustrations"><path d="M111,89.324c0,2.517 -2.04,4.557 -4.557,4.557l-97.886,0c-2.517,0 -4.557,-2.04 -4.557,-4.557l0,-81.887c0,-2.516 2.04,-4.556 4.557,-4.556l97.886,0c2.517,0 4.557,2.04 4.557,4.556l0,81.887Z" style="fill:#eef4dc;fill-rule:nonzero;"/><path d="M104,16.325c0,2.516 -2.04,4.556 -4.557,4.556l-49.886,0c-2.517,0 -4.557,-2.04 -4.557,-4.556l0,-4.889c0,-2.515 2.04,-4.555 4.557,-4.555l49.886,0c2.517,0 4.557,2.04 4.557,4.555l0,4.889ZM105,83.324c0,2.517 -2.04,4.557 -4.557,4.557l-86.886,0c-2.517,0 -4.557,-2.04 -4.557,-4.557l0,-52.887c0,-2.516 2.04,-4.556 4.557,-4.556l86.886,0c2.517,0 4.557,2.04 4.557,4.556l0,52.887ZM12.45,5.781c3.777,0 6.835,3.061 6.835,6.835c0,3.774 -3.058,6.835 -6.835,6.835c-3.773,0 -6.835,-3.061 -6.835,-6.835c0,-3.774 3.062,-6.835 6.835,-6.835M114,5.437c0,-2.516 -2.04,-4.556 -4.557,-4.556l-104.886,0c-2.517,0 -4.557,2.04 -4.557,4.556l0,86.887c0,2.517 2.04,4.557 4.557,4.557l104.886,0c2.517,0 4.557,-2.04 4.557,-4.557l0,-86.887Z" style="fill:#122749;fill-rule:nonzero;"/><path d="M54.221,35.381c0,1.887 0.747,3.5 -1.14,3.5l-29.617,0c-1.887,0 -3.418,-1.613 -3.418,-3.5c0,-1.887 1.531,-3.5 3.418,-3.5l29.617,0c1.887,0 1.14,1.613 1.14,3.5" style="fill:#414c4e;fill-rule:nonzero;"/><path d="M93,49.463c0,1.888 -1.53,3.418 -3.418,3.418l-66.164,0c-1.888,0 -3.418,-1.53 -3.418,-3.418l0,-0.164c0,-1.888 1.53,-3.418 3.418,-3.418l66.164,0c1.888,0 3.418,1.53 3.418,3.418l0,0.164Z" style="fill:#414c4e;fill-rule:nonzero;"/><path d="M93,63.464c0,1.887 -1.53,3.417 -3.418,3.417l-66.164,0c-1.888,0 -3.418,-1.53 -3.418,-3.417l0,-0.166c0,-1.887 1.53,-3.417 3.418,-3.417l66.164,0c1.888,0 3.418,1.53 3.418,3.417l0,0.166Z" style="fill:#414c4e;fill-rule:nonzero;"/><path d="M93,76.464c0,1.887 -1.53,3.417 -3.418,3.417l-66.164,0c-1.888,0 -3.418,-1.53 -3.418,-3.417l0,-0.166c0,-1.887 1.53,-3.417 3.418,-3.417l66.164,0c1.888,0 3.418,1.53 3.418,3.417l0,0.166Z" style="fill:#414c4e;fill-rule:nonzero;"/><path d="M61.38,50.196c-7.458,-7.458 -7.458,-19.548 -0.002,-27.004c7.455,-7.455 19.545,-7.455 27.003,0.003c7.456,7.453 7.456,19.543 0,27.001c-7.458,7.458 -19.548,7.455 -27.001,0M92.41,19.166c-9.564,-9.566 -25.176,-9.459 -34.741,0.106c-9.562,9.563 -9.723,25.228 -0.158,34.79c9.249,9.249 24.383,9.176 33.489,1.051l6.521,6.521c0.485,0.486 -0.343,3.106 0.694,4.142l29.486,29.486c1.551,1.549 4.705,0.911 6.254,-0.64c1.553,-1.551 2.19,-4.704 0.641,-6.252l-29.488,-29.488c-1.038,-1.038 -3.654,-0.207 -4.143,-0.695l-6.577,-6.581c7.682,-9.549 6.951,-23.513 -1.978,-32.44" style="fill:#f36838;fill-rule:nonzero;"/></g></svg>