<?xml version="1.0" standalone="no"?><!DOCTYPE svg PUBLIC "-//W3C//DTD SVG 1.1//EN" "http://www.w3.org/Graphics/SVG/1.1/DTD/svg11.dtd"><svg width="100%" height="100%" viewBox="0 0 115 97" version="1.1" xmlns="http://www.w3.org/2000/svg" xmlns:xlink="http://www.w3.org/1999/xlink" xml:space="preserve" style="fill-rule:evenodd;clip-rule:evenodd;stroke-linecap:round;stroke-linejoin:round;stroke-miterlimit:10;"><g id="Illustrations"><path d="M114,88.342l0,-35.117l0,-5.374l0,-40.489c0,-3.815 -1.555,-6.481 -5.311,-6.481l-101.477,0c-3.754,0 -7.212,2.666 -7.212,6.481l0,80.98c0,3.816 3.458,8.539 7.212,8.539l101.477,0c3.756,0 5.311,-4.723 5.311,-8.539" style="fill:#122749;"/><path d="M71,48.381l-8,0" style="fill:none;stroke-width:1px;stroke-dasharray:1,2;stroke:#f36838;"/><path d="M96.427,24.151c0,4.908 -3.979,8.889 -8.89,8.889c-4.909,0 -8.889,-3.981 -8.889,-8.889c0,-4.912 3.98,-8.893 8.889,-8.893c4.911,0 8.89,3.981 8.89,8.893" style="fill:#0075be;fill-rule:nonzero;"/><path d="M95.79,47.942c0,4.907 -3.982,8.889 -8.893,8.889c-4.907,0 -8.888,-3.982 -8.888,-8.889c0,-4.912 3.981,-8.893 8.888,-8.893c4.911,0 8.893,3.981 8.893,8.893" style="fill:#00adee;fill-rule:nonzero;"/><path d="M96.044,71.071c0,4.908 -3.98,8.889 -8.891,8.889c-4.906,0 -8.886,-3.981 -8.886,-8.889c0,-4.912 3.98,-8.893 8.886,-8.893c4.911,0 8.891,3.981 8.891,8.893" style="fill:#0075be;fill-rule:nonzero;"/><path d="M92.695,76.286l-2.194,0l0,-3.651c0,-1.002 -0.391,-1.559 -1.201,-1.559c-0.885,0 -1.346,0.584 -1.346,1.559l0,3.651l-2.115,0l0,-6.955l2.115,0l0,0.939c0,0 0.636,-1.149 2.147,-1.149c1.511,0 2.594,0.899 2.594,2.762l0,4.403Z" style="fill:#fff;fill-rule:nonzero;"/><path d="M83.311,68.424c-0.721,0 -1.31,-0.579 -1.31,-1.289c0,-0.707 0.589,-1.281 1.31,-1.281c0.721,0 1.306,0.574 1.306,1.281c0,0.71 -0.585,1.289 -1.306,1.289" style="fill:#fff;fill-rule:nonzero;"/><rect x="82.216" y="69.331" width="2.207" height="6.955" style="fill:#fff;fill-rule:nonzero;"/><path d="M90.118,21.342l-1.221,0c-0.427,0 -0.518,0.173 -0.518,0.605l0,1.046l1.739,0l-0.167,1.835l-1.572,0l0,5.485l-2.25,0l0,-5.461l-1.17,0l0,-1.859l1.17,0l0,-1.463c0,-1.376 0.755,-2.091 2.43,-2.091l1.559,0l0,1.903Z" style="fill:#fff;fill-rule:nonzero;"/><path d="M91.559,45.086c-0.339,0.151 -0.701,0.252 -1.083,0.298c0.391,-0.233 0.689,-0.603 0.831,-1.042c-0.367,0.214 -0.768,0.368 -1.2,0.457c-0.34,-0.369 -0.83,-0.597 -1.373,-0.597c-1.218,0 -2.107,1.136 -1.833,2.318c-1.568,-0.078 -2.957,-0.831 -3.884,-1.971c-0.492,0.846 -0.255,1.956 0.586,2.518c-0.312,-0.01 -0.604,-0.092 -0.857,-0.236c-0.02,0.873 0.606,1.693 1.513,1.874c-0.267,0.076 -0.557,0.09 -0.853,0.031c0.239,0.753 0.936,1.296 1.761,1.313c-0.793,0.624 -1.791,0.9 -2.787,0.782c0.832,0.534 1.823,0.847 2.886,0.847c3.498,0 5.47,-2.96 5.356,-5.613c0.364,-0.269 0.685,-0.601 0.937,-0.979" style="fill:#fff;fill-rule:nonzero;"/><path d="M58.887,47.363c0,-10.529 0.001,-21.059 0,-31.588c0,-3.646 -2.634,-6.239 -6.347,-6.24c-9.687,-0.003 -19.373,-0.003 -29.059,0c-3.716,0.001 -6.35,2.592 -6.351,6.237c-0.001,20.997 -0.001,41.995 0,62.992c0.001,3.648 2.634,6.24 6.347,6.241c9.686,0.003 19.372,0.003 29.058,0c3.714,-0.001 6.352,-2.593 6.352,-6.237c0.001,-10.469 0,-20.937 0,-31.405" style="fill:#fff;"/><rect x="21.079" y="20.985" width="33.828" height="59.963" style="fill:#eef4dc;"/><path d="M38.077,14.742c0.935,0 1.87,0.006 2.806,-0.002c0.532,-0.005 1.026,0.171 0.919,0.751c-0.053,0.293 -0.559,0.704 -0.871,0.714c-1.932,0.066 -3.867,0.067 -5.799,0.001c-0.315,-0.011 -0.831,-0.425 -0.88,-0.716c-0.094,-0.56 0.381,-0.76 0.926,-0.752c0.966,0.014 1.932,0.004 2.899,0.004" style="fill:#fff;"/><path d="M38.059,16.879c-0.929,0 -1.857,0.01 -2.786,-0.004c-0.523,-0.007 -0.98,0.185 -0.889,0.723c0.047,0.279 0.543,0.677 0.845,0.688c1.856,0.064 3.716,0.063 5.572,-0.001c0.3,-0.01 0.786,-0.405 0.837,-0.686c0.103,-0.557 -0.371,-0.726 -0.883,-0.722c-0.9,0.008 -1.797,0.002 -2.696,0.002M40.693,77.903c0.001,-1.61 -1.282,-2.921 -2.882,-2.943c-1.64,-0.022 -2.973,1.297 -2.971,2.945c0,1.649 1.327,2.961 2.971,2.94c1.605,-0.021 2.881,-1.325 2.882,-2.942M21.727,72.42l32.502,0l0,-49.542l-32.502,0l0,49.542ZM58.054,47.362c0,10.297 0.001,20.594 0,30.892c-0.001,3.585 -2.535,6.134 -6.103,6.135c-9.306,0.003 -18.613,0.003 -27.92,0c-3.567,-0.001 -6.097,-2.551 -6.098,-6.138c-0.001,-20.655 -0.001,-41.31 0,-61.965c0.001,-3.585 2.532,-6.134 6.102,-6.135c9.306,-0.002 18.612,-0.002 27.92,0c3.567,0.001 6.098,2.551 6.099,6.139c0.001,10.358 0,20.715 0,31.072" style="fill:#333;"/><path d="M83,13.381l-9.5,0l0,72l9.5,0" style="fill:none;stroke-width:1px;stroke-dasharray:1,2;stroke:#f36838;"/><path d="M40.408,77.914c0,1.445 -1.171,2.617 -2.616,2.617c-1.445,0 -2.615,-1.172 -2.615,-2.617c0,-1.444 1.17,-2.616 2.615,-2.616c1.445,0 2.616,1.172 2.616,2.616" style="fill:#333;fill-rule:nonzero;"/></g></svg>