<?xml version="1.0" standalone="no"?><!DOCTYPE svg PUBLIC "-//W3C//DTD SVG 1.1//EN" "http://www.w3.org/Graphics/SVG/1.1/DTD/svg11.dtd"><svg width="100%" height="100%" viewBox="0 0 115 97" version="1.1" xmlns="http://www.w3.org/2000/svg" xmlns:xlink="http://www.w3.org/1999/xlink" xml:space="preserve" style="fill-rule:evenodd;clip-rule:evenodd;stroke-linejoin:round;stroke-miterlimit:1.41421;"><g id="Illustrations"><path d="M17.007,92.881c-2.949,0 -6.007,-2.987 -6.007,-5.024l0,-79.368c0,-2.038 3.058,-2.608 6.007,-2.608l90.935,0c2.948,0 4.058,0.57 4.058,2.608l0,79.368c0,2.037 -1.11,5.024 -4.058,5.024l-90.935,0Z" style="fill:#eef4dc;fill-rule:nonzero;"/><rect x="22" y="7.881" width="71" height="83" style="fill:#00c1ae;"/><path d="M12,90.308l0,-36.583l0,-5.374l0,-39.897l90,0l0,81.854l-90,0ZM3.017,51.375c0,-1.725 1.39,-3.123 3.108,-3.123c1.72,0 3.11,1.398 3.11,3.123c0,1.729 -1.39,3.127 -3.11,3.127c-1.718,0 -3.108,-1.398 -3.108,-3.127M109,47.389l0,7.539c0,0.416 -0.586,0.753 -0.996,0.753c-0.418,0 -1.004,-0.337 -1.004,-0.753l0,-1.544l0,-5.995c0,-0.417 0.586,-0.756 1.004,-0.756c0.41,0 0.996,0.339 0.996,0.756M114,88.842l0,-35.117l0,-5.374l0,-40.489c0,-3.815 -1.555,-6.481 -5.311,-6.481l-101.477,0c-3.754,0 -7.212,2.666 -7.212,6.481l0,80.98c0,3.817 3.458,8.539 7.212,8.539l101.477,0c3.756,0 5.311,-4.722 5.311,-8.539" style="fill:#122749;"/><path d="M98,64.104c0,4.295 -3.482,7.777 -7.778,7.777l-64.444,0c-4.296,0 -7.778,-3.482 -7.778,-7.777l0,-5.445c0,-4.295 3.482,-7.778 7.778,-7.778l64.444,0c4.296,0 7.778,3.483 7.778,7.778l0,5.445Z" style="fill:#f06836;"/><rect x="38" y="29.881" width="39" height="12" style="fill:#fff;fill-rule:nonzero;"/><g transform="matrix(1,0,0,1,-125,-499)"><path d="M154.063,561.082l1.017,-0.089c0.049,0.407 0.161,0.742 0.337,1.003c0.176,0.262 0.45,0.473 0.82,0.635c0.371,0.161 0.788,0.242 1.252,0.242c0.411,0 0.775,-0.062 1.09,-0.184c0.315,-0.122 0.55,-0.29 0.704,-0.503c0.153,-0.214 0.23,-0.446 0.23,-0.698c0,-0.256 -0.074,-0.48 -0.222,-0.671c-0.148,-0.191 -0.393,-0.351 -0.734,-0.481c-0.219,-0.085 -0.703,-0.218 -1.452,-0.398c-0.749,-0.179 -1.274,-0.349 -1.574,-0.508c-0.389,-0.204 -0.68,-0.457 -0.871,-0.76c-0.191,-0.302 -0.286,-0.64 -0.286,-1.015c0,-0.411 0.117,-0.796 0.35,-1.154c0.234,-0.358 0.575,-0.629 1.024,-0.815c0.449,-0.185 0.947,-0.278 1.496,-0.278c0.604,0 1.138,0.097 1.599,0.292c0.462,0.195 0.817,0.481 1.065,0.859c0.249,0.379 0.382,0.807 0.401,1.285l-1.035,0.078c-0.055,-0.515 -0.244,-0.905 -0.564,-1.168c-0.321,-0.263 -0.795,-0.395 -1.421,-0.395c-0.653,0 -1.129,0.12 -1.427,0.359c-0.299,0.239 -0.448,0.527 -0.448,0.865c0,0.293 0.106,0.534 0.317,0.723c0.208,0.189 0.75,0.383 1.627,0.581c0.877,0.199 1.479,0.372 1.805,0.52c0.475,0.219 0.825,0.496 1.051,0.832c0.226,0.335 0.34,0.722 0.34,1.16c0,0.433 -0.125,0.842 -0.373,1.226c-0.249,0.384 -0.605,0.682 -1.071,0.896c-0.465,0.213 -0.989,0.319 -1.571,0.319c-0.738,0 -1.356,-0.107 -1.855,-0.322c-0.499,-0.215 -0.89,-0.539 -1.174,-0.971c-0.283,-0.432 -0.433,-0.92 -0.447,-1.465Z" style="fill:#fff;fill-rule:nonzero;"/><path d="M166.378,555.547l1.079,0l0,4.711c0,0.82 -0.092,1.471 -0.278,1.953c-0.185,0.482 -0.52,0.874 -1.004,1.176c-0.484,0.302 -1.119,0.453 -1.905,0.453c-0.764,0 -1.388,-0.131 -1.874,-0.395c-0.486,-0.263 -0.833,-0.644 -1.04,-1.143c-0.208,-0.498 -0.312,-1.18 -0.312,-2.044l0,-4.711l1.079,0l0,4.706c0,0.708 0.066,1.23 0.198,1.566c0.131,0.335 0.358,0.594 0.678,0.775c0.321,0.182 0.713,0.273 1.177,0.273c0.793,0 1.359,-0.18 1.696,-0.54c0.338,-0.359 0.506,-1.051 0.506,-2.074l0,-4.706Z" style="fill:#fff;fill-rule:nonzero;"/><path d="M169.209,563.701l0,-8.154l3.06,0c0.623,0 1.122,0.083 1.499,0.248c0.376,0.165 0.671,0.419 0.884,0.762c0.213,0.343 0.32,0.701 0.32,1.076c0,0.349 -0.095,0.677 -0.284,0.984c-0.189,0.308 -0.474,0.557 -0.856,0.746c0.493,0.144 0.872,0.391 1.137,0.74c0.265,0.348 0.398,0.76 0.398,1.234c0,0.382 -0.081,0.737 -0.242,1.066c-0.161,0.328 -0.361,0.581 -0.598,0.759c-0.237,0.178 -0.535,0.312 -0.893,0.403c-0.358,0.091 -0.796,0.136 -1.315,0.136l-3.11,0ZM170.289,558.973l1.763,0c0.478,0 0.821,-0.031 1.029,-0.094c0.274,-0.082 0.481,-0.217 0.62,-0.406c0.139,-0.189 0.208,-0.427 0.208,-0.712c0,-0.271 -0.064,-0.509 -0.194,-0.715c-0.13,-0.206 -0.315,-0.347 -0.556,-0.423c-0.241,-0.076 -0.655,-0.114 -1.241,-0.114l-1.629,0l0,2.464ZM170.289,562.739l2.03,0c0.348,0 0.593,-0.013 0.734,-0.039c0.248,-0.044 0.456,-0.119 0.623,-0.222c0.167,-0.104 0.304,-0.255 0.411,-0.454c0.108,-0.198 0.162,-0.427 0.162,-0.687c0,-0.304 -0.078,-0.568 -0.234,-0.792c-0.156,-0.225 -0.372,-0.382 -0.648,-0.473c-0.276,-0.091 -0.674,-0.136 -1.193,-0.136l-1.885,0l0,2.803Z" style="fill:#fff;fill-rule:nonzero;"/><path d="M175.785,561.082l1.018,-0.089c0.048,0.407 0.16,0.742 0.336,1.003c0.176,0.262 0.45,0.473 0.821,0.635c0.37,0.161 0.788,0.242 1.251,0.242c0.412,0 0.775,-0.062 1.09,-0.184c0.315,-0.122 0.55,-0.29 0.704,-0.503c0.154,-0.214 0.231,-0.446 0.231,-0.698c0,-0.256 -0.074,-0.48 -0.223,-0.671c-0.148,-0.191 -0.393,-0.351 -0.734,-0.481c-0.219,-0.085 -0.703,-0.218 -1.452,-0.398c-0.749,-0.179 -1.273,-0.349 -1.574,-0.508c-0.389,-0.204 -0.679,-0.457 -0.87,-0.76c-0.191,-0.302 -0.287,-0.64 -0.287,-1.015c0,-0.411 0.117,-0.796 0.351,-1.154c0.233,-0.358 0.574,-0.629 1.023,-0.815c0.449,-0.185 0.948,-0.278 1.496,-0.278c0.605,0 1.138,0.097 1.599,0.292c0.462,0.195 0.817,0.481 1.066,0.859c0.248,0.379 0.382,0.807 0.4,1.285l-1.034,0.078c-0.056,-0.515 -0.244,-0.905 -0.565,-1.168c-0.321,-0.263 -0.795,-0.395 -1.421,-0.395c-0.653,0 -1.128,0.12 -1.427,0.359c-0.298,0.239 -0.448,0.527 -0.448,0.865c0,0.293 0.106,0.534 0.317,0.723c0.208,0.189 0.75,0.383 1.627,0.581c0.877,0.199 1.479,0.372 1.805,0.52c0.475,0.219 0.825,0.496 1.052,0.832c0.226,0.335 0.339,0.722 0.339,1.16c0,0.433 -0.124,0.842 -0.373,1.226c-0.248,0.384 -0.605,0.682 -1.071,0.896c-0.465,0.213 -0.989,0.319 -1.571,0.319c-0.738,0 -1.356,-0.107 -1.855,-0.322c-0.499,-0.215 -0.89,-0.539 -1.173,-0.971c-0.284,-0.432 -0.433,-0.92 -0.448,-1.465Z" style="fill:#fff;fill-rule:nonzero;"/><path d="M187.568,560.842l1.079,0.273c-0.226,0.886 -0.633,1.562 -1.221,2.027c-0.588,0.466 -1.306,0.698 -2.155,0.698c-0.879,0 -1.594,-0.179 -2.145,-0.536c-0.55,-0.358 -0.969,-0.876 -1.257,-1.555c-0.287,-0.679 -0.431,-1.407 -0.431,-2.186c0,-0.849 0.163,-1.59 0.487,-2.222c0.324,-0.632 0.786,-1.112 1.385,-1.441c0.599,-0.328 1.258,-0.492 1.977,-0.492c0.816,0 1.502,0.208 2.058,0.623c0.557,0.415 0.944,0.999 1.163,1.752l-1.063,0.25c-0.189,-0.593 -0.463,-1.025 -0.823,-1.296c-0.359,-0.27 -0.812,-0.406 -1.357,-0.406c-0.627,0 -1.15,0.151 -1.571,0.451c-0.421,0.3 -0.717,0.704 -0.887,1.21c-0.171,0.506 -0.256,1.028 -0.256,1.565c0,0.694 0.101,1.299 0.303,1.817c0.202,0.517 0.516,0.903 0.943,1.159c0.426,0.256 0.888,0.384 1.385,0.384c0.604,0 1.116,-0.174 1.535,-0.523c0.419,-0.348 0.702,-0.866 0.851,-1.552Z" style="fill:#fff;fill-rule:nonzero;"/><path d="M189.993,563.701l0,-8.154l3.615,0c0.727,0 1.28,0.073 1.658,0.22c0.378,0.146 0.68,0.405 0.906,0.776c0.227,0.371 0.34,0.78 0.34,1.229c0,0.579 -0.188,1.066 -0.562,1.463c-0.375,0.397 -0.953,0.649 -1.735,0.756c0.285,0.138 0.502,0.273 0.65,0.406c0.316,0.29 0.614,0.651 0.896,1.085l1.418,2.219l-1.357,0l-1.079,-1.696c-0.315,-0.49 -0.575,-0.864 -0.779,-1.124c-0.204,-0.259 -0.386,-0.441 -0.548,-0.545c-0.161,-0.104 -0.325,-0.176 -0.492,-0.217c-0.122,-0.026 -0.322,-0.039 -0.601,-0.039l-1.251,0l0,3.621l-1.079,0ZM191.072,559.146l2.319,0c0.494,0 0.879,-0.051 1.157,-0.153c0.278,-0.102 0.49,-0.265 0.634,-0.49c0.145,-0.224 0.217,-0.468 0.217,-0.731c0,-0.386 -0.14,-0.703 -0.42,-0.951c-0.28,-0.249 -0.722,-0.373 -1.326,-0.373l-2.581,0l0,2.698Z" style="fill:#fff;fill-rule:nonzero;"/><rect x="195.886" y="555.547" width="1.079" height="8.154" style="fill:#fff;fill-rule:nonzero;"/><path d="M198.123,563.701l0,-8.154l3.059,0c0.623,0 1.123,0.083 1.499,0.248c0.377,0.165 0.671,0.419 0.885,0.762c0.213,0.343 0.319,0.701 0.319,1.076c0,0.349 -0.094,0.677 -0.283,0.984c-0.189,0.308 -0.475,0.557 -0.857,0.746c0.493,0.144 0.872,0.391 1.138,0.74c0.265,0.348 0.397,0.76 0.397,1.234c0,0.382 -0.08,0.737 -0.242,1.066c-0.161,0.328 -0.36,0.581 -0.598,0.759c-0.237,0.178 -0.534,0.312 -0.892,0.403c-0.358,0.091 -0.797,0.136 -1.316,0.136l-3.109,0ZM199.202,558.973l1.763,0c0.479,0 0.822,-0.031 1.029,-0.094c0.275,-0.082 0.481,-0.217 0.62,-0.406c0.14,-0.189 0.209,-0.427 0.209,-0.712c0,-0.271 -0.065,-0.509 -0.195,-0.715c-0.129,-0.206 -0.315,-0.347 -0.556,-0.423c-0.241,-0.076 -0.654,-0.114 -1.24,-0.114l-1.63,0l0,2.464ZM199.202,562.739l2.03,0c0.349,0 0.594,-0.013 0.734,-0.039c0.249,-0.044 0.457,-0.119 0.623,-0.222c0.167,-0.104 0.304,-0.255 0.412,-0.454c0.108,-0.198 0.161,-0.427 0.161,-0.687c0,-0.304 -0.078,-0.568 -0.233,-0.792c-0.156,-0.225 -0.372,-0.382 -0.648,-0.473c-0.277,-0.091 -0.674,-0.136 -1.193,-0.136l-1.886,0l0,2.803Z" style="fill:#fff;fill-rule:nonzero;"/><path d="M205.088,563.701l0,-8.154l5.896,0l0,0.962l-4.817,0l0,2.498l4.511,0l0,0.957l-4.511,0l0,2.775l5.006,0l0,0.962l-6.085,0Z" style="fill:#fff;fill-rule:nonzero;"/></g></g></svg>