<?xml version="1.0" standalone="no"?><!DOCTYPE svg PUBLIC "-//W3C//DTD SVG 1.1//EN" "http://www.w3.org/Graphics/SVG/1.1/DTD/svg11.dtd"><svg width="100%" height="100%" viewBox="0 0 115 96" version="1.1" xmlns="http://www.w3.org/2000/svg" xmlns:xlink="http://www.w3.org/1999/xlink" xml:space="preserve" style="fill-rule:evenodd;clip-rule:evenodd;stroke-linejoin:round;stroke-miterlimit:1.41421;"><g id="Illustrations"><path d="M112,88.324c0,2.517 -2.04,4.557 -4.557,4.557l-97.886,0c-2.517,0 -4.557,-2.04 -4.557,-4.557l0,-81.887c0,-2.516 2.04,-4.556 4.557,-4.556l97.886,0c2.517,0 4.557,2.04 4.557,4.556l0,81.887Z" style="fill:#eef4dc;fill-rule:nonzero;"/><path d="M107,79.929c0,4.236 -3.413,8.952 -7.347,8.952l-82.588,0c-3.933,0 -8.065,-4.716 -8.065,-8.952l0,-64.403c0,-4.239 4.132,-6.645 8.065,-6.645l82.588,0c3.934,0 7.347,2.406 7.347,6.645l0,64.403ZM107.912,-0.119l-99.105,0c-4.719,0 -7.807,4.12 -7.807,9.204l0,77.285c0,5.082 3.088,9.511 7.807,9.511l99.105,0c4.719,0 7.088,-4.429 7.088,-9.511l0,-77.285c0,-5.084 -2.369,-9.204 -7.088,-9.204" style="fill:#122749;fill-rule:nonzero;"/><path d="M49.371,61.59c-1.03,-1.778 -1.909,-26.456 -0.038,-27.538c1.867,-1.083 22.838,11.961 23.866,13.737c0,0 -21.77,17.354 -23.828,13.801" style="fill:#f36838;fill-rule:nonzero;"/></g></svg>